<svg width="18" height="18" viewBox="0 0 18 18" fill="white" xmlns="http://www.w3.org/2000/svg">
<path fill-rule="evenodd" clip-rule="evenodd" d="M9.53033 3.21967C9.82322 3.51256 9.82322 3.98744 9.53033 4.28033L4.81066 9L9.53033 13.7197C9.82322 14.0126 9.82322 14.4874 9.53033 14.7803C9.23744 15.0732 8.76256 15.0732 8.46967 14.7803L3.21967 9.53033C2.92678 9.23744 2.92678 8.76256 3.21967 8.46967L8.46967 3.21967C8.76256 2.92678 9.23744 2.92678 9.53033 3.21967Z"/>
<path fill-rule="evenodd" clip-rule="evenodd" d="M3 9C3 8.58579 3.33579 8.25 3.75 8.25H14.25C14.6642 8.25 15 8.58579 15 9C15 9.41421 14.6642 9.75 14.25 9.75H3.75C3.33579 9.75 3 9.41421 3 9Z"/>
</svg>
