<svg width="18" height="19" viewBox="0 0 18 19" fill="black" xmlns="http://www.w3.org/2000/svg">
<path fill-rule="evenodd" clip-rule="evenodd" d="M6.21967 4.46967C6.51256 4.17678 6.98744 4.17678 7.28033 4.46967L11.7803 8.96967C12.0732 9.26256 12.0732 9.73744 11.7803 10.0303L7.28033 14.5303C6.98744 14.8232 6.51256 14.8232 6.21967 14.5303C5.92678 14.2374 5.92678 13.7626 6.21967 13.4697L10.1893 9.5L6.21967 5.53033C5.92678 5.23744 5.92678 4.76256 6.21967 4.46967Z"/>
<path fill-rule="evenodd" clip-rule="evenodd" d="M13.25 3.5C13.6642 3.5 14 3.83579 14 4.25V14.75C14 15.1642 13.6642 15.5 13.25 15.5C12.8358 15.5 12.5 15.1642 12.5 14.75V4.25C12.5 3.83579 12.8358 3.5 13.25 3.5Z"/>
</svg>
