<svg width="16" height="17" viewBox="0 0 16 17" fill="black" xmlns="http://www.w3.org/2000/svg">
<path fill-rule="evenodd" clip-rule="evenodd" d="M4.00004 8.49996C4.00004 9.23634 3.40309 9.83329 2.66671 9.83329C1.93033 9.83329 1.33337 9.23634 1.33337 8.49996C1.33337 7.76358 1.93033 7.16663 2.66671 7.16663C3.40309 7.16663 4.00004 7.76358 4.00004 8.49996ZM9.33337 8.49996C9.33337 9.23634 8.73642 9.83329 8.00004 9.83329C7.26366 9.83329 6.66671 9.23634 6.66671 8.49996C6.66671 7.76358 7.26366 7.16663 8.00004 7.16663C8.73642 7.16663 9.33337 7.76358 9.33337 8.49996ZM13.3334 9.83329C14.0698 9.83329 14.6667 9.23634 14.6667 8.49996C14.6667 7.76358 14.0698 7.16663 13.3334 7.16663C12.597 7.16663 12 7.76358 12 8.49996C12 9.23634 12.597 9.83329 13.3334 9.83329Z" />
</svg>
