<svg width="18" height="18" viewBox="0 0 18 18" fill="white" xmlns="http://www.w3.org/2000/svg">
<g clip-path="url(#clip0_2_9485)">
<path fill-rule="evenodd" clip-rule="evenodd" d="M4.5 15.75C4.5 14.9216 5.17157 14.25 6 14.25C6.82843 14.25 7.5 14.9216 7.5 15.75C7.5 16.5784 6.82843 17.25 6 17.25C5.17157 17.25 4.5 16.5784 4.5 15.75Z" />
<path fill-rule="evenodd" clip-rule="evenodd" d="M12.75 15.75C12.75 14.9216 13.4216 14.25 14.25 14.25C15.0784 14.25 15.75 14.9216 15.75 15.75C15.75 16.5784 15.0784 17.25 14.25 17.25C13.4216 17.25 12.75 16.5784 12.75 15.75Z" />
<path fill-rule="evenodd" clip-rule="evenodd" d="M0.787476 1.53748C0.787476 1.12326 1.12326 0.787476 1.53748 0.787476H3.03748C3.39116 0.787476 3.69678 1.03457 3.77084 1.38041L4.447 4.53748H16.5675C16.7949 4.53748 17.0101 4.64071 17.1525 4.81814C17.2948 4.99557 17.349 5.22801 17.2996 5.45007L16.0624 11.0212C16.0624 11.0214 16.0625 11.021 16.0624 11.0212C15.9523 11.5211 15.6748 11.969 15.2761 12.29C14.8772 12.6112 14.3808 12.7866 13.8687 12.7875L6.54 12.7875C6.01997 12.7969 5.51261 12.6259 5.10433 12.3034C4.69366 11.979 4.40894 11.5215 4.29916 11.0098L3.11452 5.47849C3.10877 5.45662 3.10399 5.43436 3.10022 5.41176L2.4311 2.28748H1.53748C1.12326 2.28748 0.787476 1.95169 0.787476 1.53748ZM4.76825 6.03748L5.76579 10.6952C5.76577 10.6951 5.76581 10.6952 5.76579 10.6952C5.80242 10.8656 5.89736 11.0183 6.03418 11.1264C6.17107 11.2345 6.34138 11.2915 6.51579 11.2877L6.53248 11.2875L13.8663 11.2875C13.8661 11.2875 13.8664 11.2875 13.8663 11.2875C14.0368 11.2871 14.2025 11.2286 14.3354 11.1217C14.4684 11.0146 14.5608 10.8654 14.5975 10.6987L15.6327 6.03748H4.76825Z" />
</g>
<defs>
<clipPath id="clip0_2_9485">
<rect width="18" height="18" fill="white"/>
</clipPath>
</defs>
</svg>
